<svg xmlns="http://www.w3.org/2000/svg" viewBox="0 0 14.9 7.7" enable-background="new 0 0 14.9 7.7"><style type="text/css">.st0{fill:#010101;}</style><path id="XMLID_1_" class="st0" d="M13.8 4.3c.4-.3.7-.5 1-.7 0-.1-.1-.1-.1-.1l-2.1-1.6c-.7-.5-1.5-.7-2.3-.8-.2-.1-.3-.3-.4-.4-.3-.2-.6-.5-1-.7h-.6v.2c-.2-.1-.3-.1-.3-.2v.3l-.2-.1c0 .1-.1.2-.1.4-.3 0-.3-.1-.4-.1 0 .1-.1.2-.1.4l-.3-.1c0 .3-.2.3-.3.2-.2.1-.3.1-.4.2-.4.1-.8.2-1.2.4-.4.1-.9.3-1.4.6 0 .2.1.5.1.8-.5 0-.9 0-1.3-.3-.4-.4-.8-.7-1.3-1-.3-.2-.6-.2-1-.4v.1l.2.6c.1.3.1.6.1 1v.8c0 .5-.1.9-.3 1.3 0 .1 0 .2-.1.4.3-.1.5-.1.7-.1.6-.3 1.1-.5 1.6-.9.7-.5 1.4-.2 2.1 0 0 0 0 .1.1.1-.7.1-.6.5-.6 1 0 .2 0 .4-.1.6.4 0 .8-.2 1.1-.4.2-.1.3-.3.5-.1 0 0 .1 0 .2-.1.4-.2.6-.1.9 0 .8.3 1.7.4 2.6.3h.4c-.5.2-.4.4-.3.7l.3 1.1c.1-.1.2-.2.2-.3.3-.4.5-.9.6-1.4.1-.2.1-.3.3-.3l3-.6 1.1-.4c.1 0 .1-.1.1-.2-.1-.1-.1-.1-.2-.1-.2 0-.4 0-.8-.1z"/></svg>