<?xml version="1.0" encoding="iso-8859-1"?>
<!-- Generator: Adobe Illustrator 16.0.0, SVG Export Plug-In . SVG Version: 6.00 Build 0)  -->
<!DOCTYPE svg PUBLIC "-//W3C//DTD SVG 1.1//EN" "http://www.w3.org/Graphics/SVG/1.1/DTD/svg11.dtd">
<svg version="1.1" id="Capa_1" xmlns="http://www.w3.org/2000/svg" xmlns:xlink="http://www.w3.org/1999/xlink" x="0px" y="0px"
	 width="362.845px" height="362.845px" viewBox="0 0 362.845 362.845" style="enable-background:new 0 0 362.845 362.845;"
	 xml:space="preserve">
<g>
	<g>
		<path d="M114.571,0H79.384c-2.974,0-5.375,2.41-5.375,5.375v28.118c-24.394,9.434-40.537,32.715-40.537,59.167
			c0,35.016,28.488,63.499,63.5,63.499c35.021,0,63.505-28.483,63.505-63.499c0-26.458-16.142-49.733-40.536-59.167V5.375
			C119.946,2.41,117.532,0,114.571,0z M96.973,145.415c-27.276,0-49.778-20.801-52.481-47.371h104.967
			C146.748,124.613,124.246,145.415,96.973,145.415z"/>
		<path d="M16.69,333.978c-1.17,1.795-1.866,3.927-1.866,6.217c0,6.287,5.113,11.4,11.396,11.4c1.693,0,3.284-0.389,4.73-1.06
			c1.049-0.169,2.07-0.558,2.887-1.365l100.902-98.751c2.65,15.506,16.152,27.358,32.402,27.358
			c18.141,0,32.919-14.771,32.919-32.913c0-18.143-14.768-32.914-32.919-32.914c-1.638,0-3.239,0.167-4.816,0.398l12.037-12.042
			c1.816,2.215,4.525,3.664,7.604,3.664c5.438,0,9.858-4.425,9.858-9.868c0-3.072-1.438-5.78-3.654-7.602l39.089-39.082
			c1.784,1.801,4.262,2.919,6.991,2.919c5.448,0,9.868-4.428,9.868-9.87c0-2.729-1.112-5.207-2.919-6.991l34.763-34.751
			c1.805,2.304,4.578,3.816,7.728,3.816c5.454,0,9.868-4.43,9.868-9.869c0-3.152-1.495-5.932-3.812-7.737l37.575-37.579v219.942
			c-5.795,2.185-9.941,7.739-9.941,14.289c0,6.562,4.137,12.116,9.941,14.29v37.91v5.165c0,7.261-5.9,13.146-13.144,13.146
			c-7.234,0-13.141-5.9-13.141-13.146v-10.718l0,0c0-0.703-0.141-1.396-0.418-2.059c-0.553-1.312-1.587-2.351-2.909-2.908
			c-1.308-0.546-2.799-0.546-4.105,0c-0.661,0.284-1.243,0.672-1.753,1.176l-11.964,11.953c-2.099,2.104-2.099,5.506,0,7.602
			c1.05,1.044,2.426,1.574,3.802,1.574c1.38,0,2.766-0.53,3.8-1.574l2.997-2.997c1.057,12.205,11.224,21.843,23.681,21.843
			c13.188,0,23.905-10.72,23.905-23.907v-5.154v-37.91c5.785-2.185,9.948-7.744,9.948-14.289c0-6.552-4.142-12.105-9.948-14.295
			V34.371c0-0.698-0.141-1.399-0.419-2.052c-0.547-1.318-1.586-2.365-2.908-2.908c-1.313-0.543-2.794-0.543-4.105,0
			c-0.662,0.273-1.249,0.664-1.753,1.166L136.073,223.404c-0.801-0.177-1.631-0.293-2.484-0.293c-2.318,0-4.472,0.703-6.273,1.9
			c-1.291,0.067-2.564,0.54-3.543,1.522L17.937,331.895C17.332,332.498,16.948,333.222,16.69,333.978z M181.081,194.103
			c0-0.483,0.392-0.883,0.885-0.883s0.881,0.399,0.881,0.883C182.847,195.069,181.081,195.069,181.081,194.103z M282.807,92.668
			c0-0.486,0.399-0.882,0.883-0.882c0.499,0,0.881,0.396,0.881,0.882C284.581,93.64,282.807,93.64,282.807,92.668z M189.31,244.865
			c0,12.21-9.948,22.162-22.168,22.162c-12.213,0-22.156-9.952-22.156-22.162c0-12.216,9.942-22.164,22.156-22.164
			C179.361,222.701,189.31,232.654,189.31,244.865z M235.138,140.469c0,0.728-0.981,0.904-1.48,0.549l1.19-1.187
			C235.026,139.986,235.138,140.207,235.138,140.469z M337.27,281.578c0,2.531-2.052,4.578-4.573,4.578
			c-2.519,0-4.565-2.047-4.565-4.578c0-1.867,1.122-3.464,2.729-4.166c0.566,0.208,1.187,0.366,1.836,0.366
			c0.652,0,1.26-0.158,1.839-0.366C336.146,278.114,337.27,279.71,337.27,281.578z"/>
	</g>
</g>
<g>
</g>
<g>
</g>
<g>
</g>
<g>
</g>
<g>
</g>
<g>
</g>
<g>
</g>
<g>
</g>
<g>
</g>
<g>
</g>
<g>
</g>
<g>
</g>
<g>
</g>
<g>
</g>
<g>
</g>
</svg>
